<svg width="159" height="51" viewBox="0 0 159 51" fill="none" xmlns="http://www.w3.org/2000/svg">
<mask id="mask0_0_154" style="mask-type:luminance" maskUnits="userSpaceOnUse" x="70" y="0" width="89" height="51">
<path d="M70.6479 0.239502H158.14V50.9999H70.6479V0.239502Z" fill="white"/>
</mask>
<g mask="url(#mask0_0_154)">
<path d="M158.123 0.437724C158.021 0.315276 157.868 0.24292 157.707 0.24292H79.4453C79.1758 0.24292 78.9479 0.437724 78.9035 0.702101L70.665 50.391C70.64 50.5496 70.6845 50.7138 70.7873 50.8363C70.8929 50.9587 71.0457 51.0311 71.2068 51.0311H149.468C149.738 51.0311 149.965 50.8363 150.01 50.5719L158.248 0.88299C158.273 0.724364 158.229 0.560172 158.123 0.437724Z" fill="#FF391C"/>
</g>
<path d="M0 30.6009L3.76774 0H9.74723L7.01312 19.3134L13.1593 0H18.8498L16.0379 19.3134L22.1285 0H28.1747L17.7829 30.6009H10.4585L12.3035 15.8515L7.4688 30.6009H0Z" fill="white"/>
<path d="M23.574 30.6009L30.6204 0H36.5221L29.4757 30.6009H23.574Z" fill="white"/>
<path d="M32.824 30.6009L39.8594 0H46.1612L45.5944 14.6381L48.9731 0H54.8748L47.8283 30.6009H41.86L42.3156 15.2838L38.7924 30.6009H32.824Z" fill="white"/>
<path d="M58.4576 0H66.8933C69.0717 0 70.5666 0.609458 71.3835 1.82559C72.206 3.03616 72.356 4.82836 71.8392 7.20218L68.5938 21.5175C67.9103 24.5314 66.8628 26.7995 65.4485 28.3189C64.0397 29.8412 62.1031 30.6009 59.6357 30.6009H51.4222L58.4576 0ZM59.8802 25.1909C60.9972 25.1909 61.6863 24.6427 61.9475 23.5435L65.5707 7.7699C65.7402 7.07973 65.8069 6.56489 65.7708 6.2226C65.7319 5.87473 65.5874 5.64097 65.3373 5.5213C65.0928 5.40442 64.6733 5.34319 64.0814 5.34319H63.4034L58.8132 25.1909H59.8802Z" fill="white"/>
<path d="M83.8131 37.9742C81.5903 37.9742 80.1149 37.426 79.3897 36.3267C78.6561 35.2303 78.5755 33.452 79.1451 30.9947L79.6897 28.6014H84.4911L83.7798 31.6514C83.4964 32.8703 83.7465 33.477 84.5245 33.477C84.9607 33.477 85.2969 33.3518 85.5359 33.0985C85.772 32.8397 85.9582 32.4056 86.0916 31.7961C86.275 30.9947 86.3305 30.3351 86.2583 29.8147C86.1833 29.2971 86.0416 28.863 85.8359 28.5123C85.6276 28.1561 85.2274 27.6079 84.6356 26.8648L83.0129 24.7609C81.7598 23.1663 81.3513 21.3964 81.7903 19.4511C82.2627 17.3667 83.1074 15.7777 84.3244 14.6868C85.5386 13.5903 87.0641 13.0393 88.9035 13.0393C91.1041 13.0393 92.5545 13.6265 93.2603 14.7981C93.9633 15.9641 94.0188 17.7925 93.427 20.286H88.4478L88.8257 18.6051C88.8979 18.2795 88.8701 18.0235 88.7368 17.837C88.6034 17.645 88.3728 17.5476 88.0477 17.5476C87.6698 17.5476 87.3586 17.6534 87.1141 17.8593C86.8696 18.068 86.7056 18.3547 86.6251 18.7165C86.4389 19.5124 86.7056 20.3389 87.4253 21.1988L89.6481 23.9261C90.1594 24.5717 90.5651 25.1895 90.8707 25.7739C91.1736 26.3528 91.3653 27.0374 91.4487 27.8221C91.5376 28.6097 91.4598 29.5448 91.2153 30.6273C90.6429 33.0401 89.7732 34.8685 88.6034 36.1152C87.4392 37.3564 85.8415 37.9742 83.8131 37.9742Z" fill="black"/>
<path d="M97.3868 13.2729H103.844C105.8 13.2729 107.045 13.9047 107.579 15.1653C108.118 16.4288 108.115 18.2766 107.567 20.7089C106.995 23.1439 106.2 24.9807 105.178 26.2191C104.155 27.4519 102.683 28.0669 100.766 28.0669H98.7761L96.5532 37.7515H91.7519L97.3868 13.2729ZM100.088 23.6477C100.671 23.6477 101.124 23.5419 101.444 23.3248C101.769 23.1022 102.021 22.7877 102.199 22.3786C102.383 21.9723 102.572 21.3851 102.766 20.6198C102.988 19.5957 103.036 18.8583 102.911 18.4046C102.791 17.9455 102.391 17.7145 101.71 17.7145H101.166L99.7986 23.6477H100.088Z" fill="black"/>
<path d="M105.748 37.7515L111.383 13.2729H121.164L120.086 18.0039H115.273L114.173 22.7571H118.774L117.73 27.3768H113.117L111.806 32.9871H116.929L115.851 37.7515H105.748Z" fill="black"/>
<path d="M118.039 37.7515L123.674 13.2729H133.455L132.377 18.0039H127.564L126.464 22.7571H131.065L130.021 27.3768H125.408L124.097 32.9871H129.22L128.142 37.7515H118.039Z" fill="black"/>
<path d="M135.965 13.2729H142.7C144.448 13.2729 145.648 13.76 146.301 14.7312C146.96 15.6969 147.079 17.1301 146.657 19.028L144.067 30.4825C143.517 32.8953 142.678 34.7097 141.544 35.9259C140.416 37.1448 138.868 37.7515 136.898 37.7515H130.33L135.965 13.2729ZM137.098 33.4212C137.988 33.4212 138.538 32.9843 138.754 32.1077L141.655 19.4844C141.789 18.9362 141.839 18.5243 141.811 18.2488C141.78 17.9761 141.666 17.7896 141.466 17.6922C141.266 17.5976 140.927 17.5475 140.455 17.5475H139.921L136.243 33.4212H137.098Z" fill="black"/>
</svg>
